<svg onload="loaded()" xmlns="http://www.w3.org/2000/svg" width="1000" height="600"><title>The United States of America</title><desc>A simple game to help people learn the locations of US states. Created by Jon Relf (http://my.opera.com/orinoco/blog/find-the-country) Original map from Wikimedia Commons (http://commons.wikimedia.org/) Code help and suggestions from johnnysaucepn (http://touchthe.net/) and Jeff_Schiller (http://blog.codedread.com/) Both this and the original map are subject to the GNU Free Documentation License (http://www.gnu.org/licenses/fdl.txt). The added ecmascript code is similarly granted under the GNU GPL (http://www.gnu.org/licenses/gpl.txt)</desc><script type="text/ecmascript"><![CDATA[

var Selected='Splash';
var ToFind='';
var History=new Array("","","","","");
var NodeList;
var SelectedNode=null;
var CorrectNode=null;
var Feedback;
var Score=0;
var TopScore=0;

function loaded() {
  // change onloadFunc to point to your real onload function that you
  // want called when the page is truly ready
  var onloadFunc = Init;
  
  if (top.svgweb != undefined) {
    top.svgweb.addOnLoad(onloadFunc, true, window);
  } else {
    onloadFunc();
  }
}

function Init()
  {
    NodeList=document.getElementsByTagName('path');
    Feedback=document.getElementById('Feedback').firstChild;
    ScoreBoard=document.getElementById('Score').firstChild;
    TopScoreBoard=document.getElementById('TopScore').firstChild;
  }

function BgnClick()
  {
    var a=document.getElementById('Splash');
    a.parentNode.removeChild(a);
    Selected='none';
    NewNode();
    ScoreBoard.nodeValue='Score: 0';
    TopScoreBoard.nodeValue='Top Score: 0';
  }

function BgnOn() 
  {
    var a=document.getElementById('BgnText');
    a.setAttribute('fill','#f66');
  }

function BgnOff() 
  {
    var a=document.getElementById('BgnText');
    a.setAttribute('fill','#66f');
  }

function NewNode()
  {
//    var a=Math.round(Math.random()*NodeList.length);
    var a=Math.round(Math.random()*49);

// Store last 5 Nodes in History array, use to ensure that the same
// Node isn't randomly chosen again for the next 5 turns
    var HistoryString=History.toString();
    while(HistoryString.indexOf(NodeList.item(a).id)!=-1)
      { 
        a++; 
        if(a==50)
          a=1;
      }

    ToFind=NodeList.item(a).id;

    Feedback.nodeValue='Find '+ToFind;
    History.pop();
    History.unshift(ToFind);
  }

function UpdateScore() 
  {
    if(Score>TopScore)
      {
        TopScore=Score;
        TopScoreBoard.nodeValue='Top Score: '+TopScore;
      }
    Score=0;
    ScoreBoard.nodeValue='Score: 0';
    if(SelectedNode)
      {
        SelectedNode.setAttribute('fill','#ccc');
        SelectedNode=null;
      }
    if(CorrectNode)
      {
        CorrectNode.setAttribute('fill','#ccc');
        CorrectNode=null;
      }
    NewNode();
    Selected='none';
  }

function Check(a) 
  {
    if(Selected!='Splash')
      {
        if(a.target.id==ToFind)
          {
            Feedback.nodeValue='Correct!';
            Score++;
            ScoreBoard.nodeValue='Score: '+Score;
            window.setTimeout("NewNode(); Selected='none';", 1000);
          }
        else
          {
            SelectedNode=a.target;
            Selected=a.target.id;
            CorrectNode=document.getElementById(ToFind);
            CorrectNode.setAttribute('fill','#6c6'); // highlight correct answer        
            Feedback.nodeValue='Wrong. You selected '+Selected;
            
            window.setTimeout("UpdateScore()", 2000);
          }
      }
  }

function On(a) 
  {
    if(Selected=='none')
      a.target.setAttribute('fill','#f66');
  }

function Off(a) 
  {
    if(a.target.id!=Selected)
      a.target.setAttribute('fill','#ccc');
  }

]]></script><g transform="matrix(1.03463 0 0 1.03463 -18.287 -156.915)" id="States" fill="#ccc"><path id="Hawaii" onclick="Check(evt)" onmouseover="On(evt)" onmouseout="Off(evt)" d="M242.961 653.593l1.875-3.438 2.188-.312.312.781-2.03 2.969h-2.345zm9.844-3.594l5.938 2.5 2.031-.312 1.563-3.75-.625-3.282-4.063-.468-3.906 1.718-.938 3.594zm29.688 9.688l3.594 5.312 2.343-.312 1.094-.47 1.406 1.25 3.594-.155.938-1.407-2.813-1.718-1.875-3.594-2.031-3.438-5.625 2.813-.625 1.719zm19.531 8.593l1.25-1.875 4.531.938.626-.469 5.937.625-.312 1.25-2.5 1.406-4.22-.312-5.312-1.563zm5.156 5l1.876 3.75 2.968-1.093.313-1.563-1.563-2.031-3.594-.313v1.25zm6.72-1.093l2.187-2.813 4.531 2.344 4.219 1.094 4.219 2.656v1.875l-3.438 1.719-4.687.937-2.344-1.406-4.688-6.406zm16.093 15l1.563-1.25 3.28 1.562 7.345 3.438 3.28 2.031 1.563 2.344 1.875 4.219 3.907 2.5-.313 1.25-3.75 3.125-4.062 1.406-1.407-.625-2.968 1.719-2.344 3.125-2.188 2.812-1.718-.156-3.438-2.5-.312-4.375.625-2.344-1.563-5.469-2.031-1.718-.156-2.5 2.187-.938 2.031-2.969.47-.937-1.563-1.719-.313-2.031z"/><path id="Alaska" onclick="Check(evt)" onmouseover="On(evt)" onmouseout="Off(evt)" d="M170.461 590.155l-.312 82.5 1.562.938 2.969.156 1.406-1.094h2.5l.156 2.813 6.72 6.562.468 2.5 3.281-1.875.625-.156.313-2.969 1.406-1.562 1.094-.156 1.875-1.407 2.968 2.032.626 2.812 1.875 1.094 1.093 2.344 3.75 1.718 3.282 5.782 2.656 3.75 2.187 2.656 1.407 3.594 4.843 1.719 5 2.03.938 4.22.469 2.968-.938 3.282-1.719 2.187-1.562-.781-1.406-2.969-2.657-1.406-1.718-1.094-.782.781 1.407 2.657.156 3.593-1.094.47-1.875-1.876-2.031-1.25.469 1.563 1.25 1.718-.782.782s-.78-.313-1.25-.938c-.468-.625-2.031-3.281-2.031-3.281l-.937-2.188s-.313 1.25-.938.938c-.625-.313-1.25-1.406-1.25-1.406l1.719-1.875-1.406-1.407v-4.843h-.782l-.781 3.28-1.094.47-.937-3.594-.625-3.594-.781-.469.312 5.47v1.093l-1.406-1.25-3.438-5.781-2.031-.47-.625-3.593-1.563-2.812-1.562-1.094v-2.188l2.031-1.25-.469-.312-2.5.625-3.28-2.344-2.5-2.813-4.688-2.5-3.907-2.5 1.25-3.125v-1.562l-1.718 1.562-2.813 1.094-3.594-1.094-5.468-2.343h-5.313l-.625.468-6.25-3.75-2.031-.312-2.656-5.625-3.438.312-3.438 1.407.47 4.375 1.093-2.813.937.313-1.406 4.218 3.125-2.656.625 1.563-3.75 4.218-1.25-.312-.469-1.875-1.25-.781-1.25 1.093-2.656-1.718-2.969 2.03-1.718 2.032-3.282 2.031-4.53-.156-.47-2.031 3.594-.625v-1.25l-2.187-.625.937-2.344 2.188-3.75v-1.719l.156-.78 4.219-2.188.937 1.25h2.656l-1.25-2.5-3.593-.313-4.844 2.656-2.344 3.282-1.719 2.5-1.093 2.187-4.063 1.406-2.969 2.5-.312 1.563 2.187.937.782 2.032-2.657 3.125-6.25 4.062-7.5 4.063-2.031 1.093-5.156 1.094-5.157 2.188 1.72 1.25-1.407 1.406-.469 1.094-2.656-.938-3.125.157-.781 2.187h-.938l.313-2.344-3.438 1.25-2.812.938-3.282-1.25-2.812 1.875h-3.125l-2.031 1.25-1.563.781-2.031-.312-2.5-1.094-2.188.625-.937.937-1.563-1.093v-1.875l2.97-1.25 6.093.625 4.219-1.563 2.03-2.031 2.813-.625 1.72-.781 2.655.156 1.563 1.25.937-.313 2.188-2.656 2.969-.938 3.281-.625 1.25-.312.625.469h.781l1.25-3.594 3.906-1.406 1.876-3.594 2.187-4.375 1.563-1.406.312-2.5-1.562 1.25-3.282.625-.625-2.344-1.25-.313-.937.938-.157 2.812-1.406-.156-1.406-5.625-1.25 1.25-1.094-.469-.312-1.875-3.907.157-2.03 1.093-2.5-.312 1.405-1.406.47-2.5-.626-1.875 1.406-.938 1.25-.156-.625-1.719v-4.219l-.937-.937-.781 1.406h-5.938l-1.406-1.25-.625-3.75-2.031-3.437v-.938l2.03-.781.157-2.031 1.094-1.094-.781-.469-1.25.469-1.094-2.656.937-4.844 4.375-3.125 2.5-1.563 1.875-3.594 2.657-1.25 2.5 1.094.312 2.344 2.344-.313 3.125-2.343 1.562.625.938.625h1.562l2.188-1.25.781-4.22s.313-2.812.938-3.28c.625-.47.937-.938.937-.938l-1.093-1.875-2.5.781-3.126.782-1.875-.47-3.437-1.718-4.844-.156-3.437-3.594.468-3.75.625-2.344-2.03-1.718-1.876-3.594.469-.781 6.562-.47h2.032l.937.938h.625l-.156-1.562 3.75-.625 2.5.312 1.406 1.094-1.406 2.031-.469 1.407 2.657 1.562 4.843 1.719 1.719-.938-2.187-4.218-.938-3.125.938-.782-3.282-1.875-.468-1.093.468-1.563-.781-3.75-2.813-4.531-2.343-4.063 2.812-1.875h3.125l1.719.625 4.063-.156 3.593-3.438 1.094-2.968 3.594-2.344 1.562.937 2.657-.625 3.593-2.03 1.094-.157.938.781 4.375-.156 2.656-2.969h1.094l3.437 2.344 1.875 2.031-.469 1.094.625 1.094 1.563-1.563 3.75.313.312 3.593 1.875 1.407 6.876.625 6.093 4.062 1.407-.937 5 2.5 2.03-.625 1.876-.782 4.687 1.876 4.22 2.812zm-111.25 27.969l2.03 5.156-.155.938-2.813-.313L56.554 620l-1.718-1.406h-2.344l-.156-2.5 1.718-2.344 1.094 2.344 1.406 1.406 2.657.625zm-2.5 32.344l3.593.781 3.594.938.781.937-1.562 3.594-2.969-.156-3.281-3.438-.156-2.656zm-20-13.594l1.093 2.5 1.094 1.563-1.094.78-2.031-2.968v-1.875h.937zm-13.282 70.625l3.281-2.187 3.282-.938 2.5.313.468 1.562 1.875.47 1.875-1.876-.312-1.562 2.656-.625 2.813 2.5-1.094 1.718-4.219 1.094-2.656-.469-3.594-1.093-4.219 1.406-1.562.312-1.094-.625zm47.344-4.375L72.336 705l2.03-1.562-1.405-1.25-2.188.937zm2.813 2.97l1.093-2.188 2.032.312-.782 1.875h-2.343zm22.812-1.876l1.407 1.719.937-1.094-.781-1.875-1.563 1.25zm8.438-12.031l1.094 5.625 2.812.781 4.844-2.812 4.219-2.5-1.563-2.344.469-2.344-2.031 1.25-2.813-.781 1.563-1.094 1.875.781 3.75-1.719.468-1.406-2.343-.781.78-1.875-2.655 1.875-4.532 3.437-4.687 2.813-1.25 1.094zm40.938-19.22l2.343-1.405-.937-1.72-1.719.938.313 2.188z"/><path id="Washington" onclick="Check(evt)" onmouseover="On(evt)" onmouseout="Off(evt)" d="M108.116 157.813l4.22 1.406 9.374 2.656 8.281 1.875 19.375 5.469 22.188 5.469 14.653 3.28-.97 3.755-3.957 13.347-4.309 20.108-3.07 15.6-.34 9.065-12.74-3.764-15.049-3.27-13.21.576-1.527-1.48-5.148 1.833-3.844-.242-2.63-1.702-1.526.508-4.064-.221-1.813-1.326-4.617-1.679-1.394-.2-4.819-1.28-1.723 1.457-5.5-.332-4.66-3.667.197-.773.066-7.668-2.054-3.757-3.978-.707-.352-2.276-2.43-.606-2.786-.517-1.719.938-2.187-2.813.312-2.813 2.657-.312 1.562-3.906-2.5-1.094.156-3.594 4.22-.625-2.657-2.656L76.398 185l.625-2.813v-7.656l-1.719-3.125 2.187-9.062 2.032.469 2.343 2.812 2.657 2.5L87.648 170l4.375 2.031 2.968.625 2.813 1.406 3.281.938 2.188-.156V172.5l1.25-1.094 2.031-1.25.312 1.094.313 1.719-2.188.469-.312 2.03 1.719 1.407 1.093 2.344.625 1.875 1.407-.156.156-1.25-.938-1.25-.468-3.125.781-1.72-.625-1.405V170l1.719-3.438-1.094-2.5-2.344-4.687.313-.781 1.093-.781zm-9.14 5.778l1.953-.156.47 1.328 1.484-1.562h2.265l.781 1.484-1.484 1.64.625.782-.703 1.953-1.328.39s-.86.079-.86-.234c0-.312 1.407-2.5 1.407-2.5l-1.641-.547-.312 1.407-.704.625-1.484-2.188-.469-2.422z"/><path id="Oregon" onclick="Check(evt)" onmouseover="On(evt)" onmouseout="Off(evt)" d="M153.285 322.437l4.154-17.302 4.508-17.28 1.016-4.088 2.276-5.435-.595-1.124-2.43-.045-1.24-1.615.442-1.415.487-3.138 4.309-5.303 1.768-1.063 1.104-1.105 1.437-3.446 3.911-5.48 3.447-3.733.22-3.336-3.159-2.386-1.168-4.359-12.796-3.619-14.584-3.425-14.915.11-.442-1.325-5.303 1.988-4.31-.552-2.32-1.547-1.215.663-4.53-.22-1.657-1.327-5.082-1.988-.774.11-4.198-1.436-1.879 1.768-5.966-.332-5.745-3.977.663-.774.22-7.513-2.209-3.756-3.977-.553-.663-2.43-2.275-.451-5.605 1.99-2.187 6.25-3.125 9.687-3.125 6.25-4.844 13.594-6.25 13.125-7.813 12.187-1.875 2.813-.78 8.281-1.25 5.781 2.617 3.41 6.504 2.175 11.204 3.183 7.602 2.454 11.999 3.513 12.882 3.47 12.727 3.446"/><path id="Idaho" onclick="Check(evt)" onmouseover="On(evt)" onmouseout="Off(evt)" d="M153.935 322.362l4.28-16.917 4.198-17.125 1.326-4.088 2.43-5.745-1.215-2.21-2.43.11-.774-.994.442-1.105.331-2.983 4.31-5.303 1.767-.442 1.105-1.105.552-3.094.884-.662 3.757-5.635 3.756-4.199.221-3.646-3.314-2.54-1.271-4.255.387-9.336 3.535-15.91 4.31-20.108 3.645-13.037.737-3.676 12.56 2.443-4.018 20.789 2.85 7.447-1.017 4.42 1.923 4.419 3.094 1.636 4.311 9.478 2.605 3.69.597 1.106 3.315 1.104.441 2.454-6.695 16.24.31 3.206 2.586 2.783 1.815.466 4.64-3.493.353-.485.15.818.245 3.997 2.497 12.463 3.338 2.586.418.818 2.078 2.365-.752 2.694.663 3.625 1.88.884 2.055-1.59 2.497-.465 3.248 1.547 2.431-.574 3.667-.155 3.846 1.547 2.652-.287.907-2.252 2.407-1.594.706 1.636.597 2.163 2.23 2.454-3.645 23.179-4.972 28.038-4.02-.308-7.91-1.481-9.479-1.768-11.756-2.299-12.109-2.42-8.2-1.778-8.948-1.613-8.926-1.723c-21.855-4.198-13.674-2.752-20.434-4.205z"/><path id="Montana" onclick="Check(evt)" onmouseover="On(evt)" onmouseout="Off(evt)" d="M362.408 269.845l.627-10.777 2.183-23.958c.441-4.861 1.047-8.188 1.325-14.894l.909-14.065-29.648-2.714L309.523 200l-28.282-3.906-31.25-5.156-17.812-3.282-31.628-6.7-4.33 20.633 3.315 7.292-1.326 4.42 1.768 4.418 3.093 1.326 4.467 10.41 2.605 3.07.442 1.104 3.314 1.105.442 1.989-6.85 17.015v2.43l2.43 3.094h.884l4.64-2.873.664-1.104 1.547.662-.221 5.083 2.651 12.153 2.873 2.43.884.664 1.768 2.21-.442 3.314.663 3.315 1.104.884 2.21-2.21h2.652l3.093 1.547 2.431-.884h3.977l3.536 1.547 2.652-.442.442-2.873 2.872-.663 1.326 1.326.442 3.093 1.72 1.32 1.482-11.178 20 2.872 27.245 3.823 16 1.833 30.393 3.34 10.622 1.474 1.017-14.911 1.36-5.169z"/><path id="Wyoming" onclick="Check(evt)" onmouseover="On(evt)" onmouseout="Off(evt)" d="M360.07 290.628l-10.196-.78-31.014-3.186-15.689-1.988-27.4-3.978-19.225-2.872-1.371 10.802-3.71 23.448-5.083 29.39-1.48 10.163-1.614 11.491 6.306.898 25.013 2.416 19.88 2.23 35.553 3.977 23.024 2.765 4.354-42.714 1.391-24.528 1.261-17.534z"/><path id="North Dakota" onclick="Check(evt)" onmouseover="On(evt)" onmouseout="Off(evt)" d="M473.207 275.06l-.353-7.246-1.923-7.071-1.768-13.192-.442-9.502-1.923-3.005-1.546-5.171v-9.944l.662-3.756-2.044-5.315-27.472-.546-17.969-.625-25.625-1.25-24.111-1.82-1.219 13.754-1.326 14.584-2.183 24.113-.47 10.651 54.915 3.638 54.797 1.702z"/><path id="South Dakota" onclick="Check(evt)" onmouseover="On(evt)" onmouseout="Off(evt)" d="M474.648 348.044l-.921-1.044-1.47-3.506 1.768-3.578 1.015-5.369-2.496-1.988-.287-2.652.573-2.896 2.078-.776.287-5.543-.066-29.079-.597-2.873-3.977-3.47-.95-1.922v-1.857l1.834-1.237 1.48-1.79.177-2.63-55.462-1.546-54.294-3.756-.74 5.102-1.56 15.337-1.3 17.347-1.547 23.773 15.492.994 18.98 1.105 17.39 1.26 22.982 1.26 10.385-.752 2.764 2.21 4.176 2.872.95.73 3.422-.861 3.912-.287 2.651-.066 3.01 1.17 4.395 1.392 3.028 1.702.597 1.857.884 1.834.682-.465.755-.002z"/><path id="Nebraska" onclick="Check(evt)" onmouseover="On(evt)" onmouseout="Off(evt)" d="M485.713 390.387l1.325 2.586.09 2.054 2.275 3.602 2.629 3.047h-4.88l-42.028-.908-39.422-.86-20.482-.929 1.037-20.614-32.262-2.651 4.198-42.537 15.026.994 19.446 1.105 17.235 1.105 22.981 1.105 10.386-.442 1.989 2.21 4.64 2.872 1.105.884 4.199-1.326 3.756-.442 2.652-.22 1.767 1.325 4.862 1.547 2.872 1.547.442 1.547.884 1.988h1.768l.771.045.95 5.038 2.652 7.757 1.194 4.485 2.054 3.69.508 4.773 1.392 4.133.531 6.253"/><path id="Minnesota" onclick="Check(evt)" onmouseover="On(evt)" onmouseout="Off(evt)" d="M473.761 275.835l-.442-8.176-1.768-7.071-1.767-13.037-.442-9.502-1.768-3.315-1.547-4.861v-9.944l.663-3.756-1.76-5.27 29.124.035.312-7.97.625-.155 2.188.468 1.875.781.781 5.313 1.406 5.938 1.563 1.562h4.687l.313 1.406 6.094.313v2.031h4.687l.313-1.25 1.093-1.094 2.188-.625 1.25.938h2.812l3.75 2.5 5.157 2.344 2.343.468.47-.937 1.405-.469.47 2.813 2.5 1.25.468-.47 1.25.157v2.031l2.5.938h2.969l1.562-.781 3.125-3.125 2.5-.47.781 1.72.47 1.25h.937l.937-.782 8.594-.312 1.719 2.969h.625l.69-1.048 4.29-.359-.59 2.203-3.808 1.776-8.936 3.925-4.615 1.94-2.969 2.5-2.344 3.438-2.187 3.75-1.719.78-4.375 4.845-1.25.156-3.713 2.835-2.722 3.056-.221 2.87.22 7.518-1.544 1.547-5.083 3.976-1.77 5.526 2.433 3.526.444 2.435-1.11 2.875-.22 3.537.443 6.847 3.311 3.969h2.876l2.426 2.216 3.095 1.32 3.537 4.866 6.85 4.855 1.77 1.993.226 5.318-19.9.663-58.232.444-.326-34.483-.442-2.873-3.978-3.314-1.104-1.768V281.8l1.988-1.547 1.326-1.326.221-3.093z"/><path id="Iowa" onclick="Check(evt)" onmouseover="On(evt)" onmouseout="Off(evt)" d="M565.306 346.544l.165 1.877 2.21 1.102 1.102 1.215.333 1.219 3.756 3.095.663 2.1-.772 2.766-1.44 3.426-.772 2.65-2.1 1.549-1.658.553-5.302 1.435-.662 2.207-.773 2.208.553 1.326 1.658 1.656-.001 3.539-2.097 1.547-.444 1.437v2.432l-1.438.442-1.657 1.324-.44 1.436.44 1.66-1.328 1.164-2.217-2.601-1.434-2.54-8.061.773-9.831.552-24.199.665-12.599.22-9.06.221-1.271.118-1.6-4.322-.22-6.409-1.547-3.977-.663-5.082-2.21-3.536-.884-4.64-2.651-7.292-1.105-5.193-1.326-2.1-1.547-2.651 1.768-4.199 1.326-5.524-2.652-1.989-.442-2.651.884-2.43h12.817l47.95-.664 19.212-.663 1.788 2.655 1.771 2.534.44.777-1.769 2.657.44 4.08 2.431 3.757 2.87 1.763 2.324.223 1.27 2.103z"/><path id="Wisconsin" onclick="Check(evt)" onmouseover="On(evt)" onmouseout="Off(evt)" d="M610.102 342.246l.358-2.871-1.562-4.375-.625-5.938-1.094-2.343.937-2.969.782-2.813 1.406-2.5-.625-3.28-.625-3.438.469-1.719 1.875-2.344.156-2.656-.781-1.25.625-2.5.468-3.125 2.657-5.469 2.812-6.562.156-2.188-.312-.937-.781.469-4.063 6.093-2.656 3.906-1.875 1.72-.781 2.187-1.407.781-1.093 1.875-1.407-.313-.156-1.718 1.25-2.344 2.031-4.531 1.72-1.563 1.064-2.215-1.576-.875-1.326-1.325-1.547-9.944-3.536-1.105-1.325-2.21-12.154-2.651-2.43-1.105-7.955-2.21-7.955-1.105-4.03-5.224-.512 1.22-1.094-.157-.625-1.094-2.656-.781-1.094.156-1.719.938-.937-.625.625-1.875 1.875-2.969 1.094-1.094-1.875-1.406-2.032.781-2.812 1.875-7.188 3.125-2.812.625-2.813-.469-.948-.848-2.046 2.74-.221 2.652v8.176l-1.105 1.546-5.082 3.757-2.21 5.745.442.221 2.43 1.989.663 3.093-1.767 3.094v3.756l.442 6.409 2.872 2.872h3.315l1.768 3.094 3.314.442 3.757 5.524 6.85 3.978 1.988 2.651.884 7.182.663 3.204 2.21 1.547.22 1.325-1.988 3.315.221 3.094 2.43 3.756 2.432 1.105 2.872.442 1.298 1.334h8.866l25.195-1.437 9.72-1.324z"/><path id="Michigan" onclick="Check(evt)" onmouseover="On(evt)" onmouseout="Off(evt)" d="M579.829 230.976l1.767-1.988 2.1-.774 5.192-3.756 2.21-.553.442.442-4.972 4.972-3.204 1.878-1.989.884-1.546-1.105zm83.29 31.053l.625 2.422 3.125.156 1.25-1.172s-.078-1.406-.39-1.562c-.313-.156-1.563-1.797-1.563-1.797l-2.11.234-1.562.157-.313 1.093.938.47zm29.06 60.94L689.054 315l-2.188-8.75-2.343-3.125-2.5-1.719-1.563 1.094-3.75 1.719-1.875 4.844-2.656 3.593-1.094.625-1.406-.625s-2.5-1.406-2.344-2.031c.156-.625.469-4.844.469-4.844l3.281-1.25.781-3.281.625-2.5 2.344-1.563-.312-9.687-1.563-2.188-1.25-.78-.781-2.032.781-.781 1.563.312.156-1.562-2.344-2.188-1.25-2.5h-2.5l-4.375-1.406-5.312-3.281h-2.657l-.625.625-.937-.469-2.969-2.188-2.812 1.72-2.813 2.187.313 3.437.937.313 2.031.469.47.78-2.5.782-2.5.313-1.407 1.718-.313 2.031.313 1.563.312 5.313-3.437 2.03-.625-.156V287.5l1.25-2.344.625-2.344-.781-.78-1.875.78-.938 4.063-2.656 1.094-1.719 1.875-.156.937.625.781-.625 2.5-2.188.47v1.093l.782 2.344-1.094 5.937-1.563 3.906.625 4.532.47 1.094-.782 2.343-.313.781-.312 2.657 3.437 5.781 2.813 6.25 1.406 4.688-.781 4.53-.938 5.782-2.343 5-.313 2.656-3.15 2.982 4.261-.156 20.702-2.188 7.034-.954.094 1.61 6.622-1.171 9.954-1.453 3.725-.446.133-.567.156-1.407 2.032-3.594 1.933-1.68-.215-4.882 1.544-1.544 1.054-.331.215-3.438 1.484-2.93 1.016.587.156.625.781.156 1.875-.938-.312-9.218zm-126.005-63.814l.692-.561 2.657-.781 3.437-2.188v-.938l.625-.625 5.781-.937 2.344-1.875 4.219-2.031.156-1.25 1.875-2.813 1.719-.781 1.25-1.719 2.187-2.187 4.22-2.344 4.53-.469 1.094 1.094-.312.938-3.594.937-1.406 2.969-2.188.781-.469 2.344-2.343 3.125-.313 2.5.781.469.938-1.094 3.437-2.813 1.25 1.25h2.188l3.125.938 1.406 1.094 1.406 2.968 2.657 2.656 3.75-.156 1.406-.937 1.562 1.25 1.563.469 1.25-.782h1.094l1.562-.937 3.906-3.438 3.282-1.094 6.406-.312 4.375-1.875 2.5-1.25 1.406.156v5.469l.469.313 2.812.78 1.875-.468 5.938-1.563 1.094-1.093 1.406.469v6.718l3.125 2.969 1.25.625 1.25.938-1.25.312-.781-.313-3.594-.468-2.031.625-2.188-.156-3.125 1.406h-1.719l-5.625-1.25-5 .156-1.875 2.5-6.718.625-2.344.781-1.094 2.969-1.25 1.094-.469-.156-1.406-1.563-4.375 2.344h-.625l-1.094-1.563-.78.156-1.876 4.22-.937 3.906-3.075 6.766-1.137-1-1.326-.996-1.876-9.944-3.426-1.324-1.984-2.21-11.714-2.652-2.76-.995-7.955-2.1-7.626-1.105-3.595-4.973z"/><path id="New York" onclick="Check(evt)" onmouseover="On(evt)" onmouseout="Off(evt)" d="M818.557 334.746l-1.094-.937-2.5-.156-2.187-1.875-1.576-5.924-3.343.087-2.362-2.617-18.736 4.235-41.563 8.437-7.278 1.187-.713-6.252 1.38-1.087 1.25-1.094.938-1.563 1.718-1.093 1.875-1.719.47-1.563 2.03-2.656 1.094-.937-.156-.938-1.25-2.969-1.719-.156-1.875-5.937 2.813-1.719 4.218-1.406 3.907-1.25 3.125-.469 6.093-.156 1.875 1.25 1.563.156 2.031-1.25 2.5-1.094 5-.469 2.031-1.718 1.72-3.125 1.562-1.875h2.031l1.875-1.094.156-2.188-1.406-2.03-.313-1.407 1.094-2.031v-1.406h-1.719l-1.718-.782-.782-1.094-.156-2.5 5.625-5.312.625-.781 1.406-2.813 2.813-4.375 2.656-3.594 2.031-2.343 2.335-1.765 2.978-1.204 5.312-1.25 3.125.156 4.375-1.406 7.312-2.002.503 4.813 2.344 6.25.78 5-.937 3.75 2.5 4.375.782 2.031-.782 2.813 2.813 1.25.625.312 2.969 10.625-.519 4.89-.468 10.47.78 5.312.782 3.438 1.406 7.03v7.813l-1.093 2.188 1.777 1.926.77 1.622-1.875 1.719.313 1.25 1.25-.313 1.406-1.25 2.187-2.5 1.094-.625 1.563.625 2.187.157 7.656-3.75 2.813-2.656 1.25-1.407 4.062 1.563-3.28 3.437-3.75 2.813-6.876 5.156-2.5.938-5.625 1.875-3.906 1.093-1.135-.515-.236-3.565.468-2.656-.156-2.031-2.72-1.643-4.374-.937-3.75-1.094-3.594-1.719z"/><path id="Vermont" onclick="Check(evt)" onmouseover="On(evt)" onmouseout="Off(evt)" d="M833.76 300.245l-.781-5.469-2.311-9.638-.625-.312-2.813-1.25.782-2.813-.782-2.03-2.61-4.486.938-3.75-.781-5-2.344-6.25-.778-4.757 25.369-6.522.313 5.624 1.875 2.657v3.906l-3.594 3.906-2.5 1.094v1.094l1.094 1.718v8.282l-.781 8.906-.156 4.687.937 1.25-.156 4.375-.469 1.72.639 1.514-6.72 1.328-3.746.216z"/><path id="New Hampshire" onclick="Check(evt)" onmouseover="On(evt)" onmouseout="Off(evt)" d="M868.995 289.322l.84-1.04 1.054-3.182-2.458-.883-.469-2.968-3.75-1.094-.312-2.656-7.032-22.657-4.447-14.056-.867-.005-.625 1.563-.625-.469-.938-.938-1.406 1.875-.047 4.864.302 5.478 1.875 2.656v3.906l-3.594 4.894-2.5 1.093v1.094l1.094 1.719v8.281l-.782 8.906-.156 4.688.938 1.25-.157 4.375-.468 1.719 1.406.856 15.841-4.533 2.188-.625 1.483-2.467 3.612-1.644z"/><path id="Maine" onclick="Check(evt)" onmouseover="On(evt)" onmouseout="Off(evt)" d="M909.991 226.406l1.875 2.031 2.188 3.594v1.875l-2.031 4.531-1.875.625-3.282 2.97-4.687 5.312h-1.25c-.625 0-.938-2.031-.938-2.031l-1.718.156-.938 1.406-2.344 1.406-.937 1.406 1.562 1.407-.468.625-.469 2.656-1.875-.156v-1.563l-.313-1.25-1.406.313-1.719-3.125-2.03 1.25 1.25 1.406.312 1.094-.782 1.25.313 2.969.156 1.562-1.562 2.5-2.813.469-.312 2.812-5.157 2.969-1.25.469-1.562-1.406-2.969 3.437.938 3.125-1.407 1.25-.156 4.219-1.085 6.05-2.38-1.118-.47-2.968-3.75-1.094-.312-2.656-7.03-22.657-4.059-13.183 1.373-.114 1.463.396v-2.5l.781-5.313 2.5-4.53 1.407-3.907-1.875-2.344v-5.781l.781-.938.781-2.656-.156-1.406-.156-4.688 1.718-4.687 2.813-8.594 2.031-4.062h1.25l1.25.156v1.094l1.25 2.187 2.656.625.782-.781v-.938l3.906-2.812 1.719-1.719 1.406.156 5.781 2.344 1.875.938 8.75 28.906h5.781l.782 1.875.156 4.688 2.812 2.187h.782l.156-.469-.469-1.094 2.656-.156zm-20.23 29.139l1.484-1.485 1.328 1.016.547 2.344-1.641.86-1.719-2.735zm6.484-5.703l1.718 1.797s1.25.078 1.25-.235c0-.312.235-1.953.235-1.953l.86-.781-.782-1.719-1.953.703-1.328 2.188z"/><path id="Massachusetts" onclick="Check(evt)" onmouseover="On(evt)" onmouseout="Off(evt)" d="M887.531 319.696l2.1-.663.442-1.657.994.11.994 2.21-1.215.442-3.756.11.441-.552zm-9.06.774l2.21-2.541h1.547l1.768 1.436-2.32.994-2.1.995-1.104-.884zm-33.634-21.253l16.875-4.062 2.188-.625 2.031-3.125 3.612-1.608 2.792 4.265-2.344 5-.312 1.407 1.875 2.5 1.094-.781h1.718l2.188 2.5 3.75 5.78 3.437.47 2.188-.938 1.719-1.719-.782-2.656-2.03-1.563-1.407.782-.938-1.25.47-.469 2.03-.156 1.72.781 1.874 2.344.938 2.812.312 2.344-4.062 1.406-3.75 1.875-3.75 4.375-1.875 1.406v-.937l2.343-1.406.47-1.719-.782-2.969-2.813 1.406-.78 1.407.468 2.187-1.997.967-2.655-4.375-3.282-4.22-2-1.751-6.316 1.813-4.921 1.016-21.094 4.61-.39-4.78.626-10.234 5-.86 6.562-1.25"/><path id="Connecticut" onclick="Check(evt)" onmouseover="On(evt)" onmouseout="Off(evt)" d="M861.644 325.688l-.606-4.064-.782-4.218-1.562-5.782-4.013.875-21.094 4.61.625 3.202 1.406 7.032v7.812l-1.093 2.188 1.77 2.038 4.79-3.287 3.438-3.125 1.875-2.031.781.625 2.656-1.407 5-1.094 6.81-3.374z"/><path id="Rhode Island" onclick="Check(evt)" onmouseover="On(evt)" onmouseout="Off(evt)" d="M862.491 325.469l-.466-4.064-.782-4.219-1.64-5.703L865.15 310l1.562 1.094 3.281 4.218 2.812 4.298-2.814 1.485-1.25-.156-1.093 1.718-2.344 1.875-2.813.938z"/><path id="New Jersey" onclick="Check(evt)" onmouseover="On(evt)" onmouseout="Off(evt)" d="M818.118 335.624l-2.03 2.344v2.968l-1.876 2.97-.156 1.562 1.25 1.25-.156 2.343-2.188 1.094.781 2.656.157 1.094 2.656.313.937 2.5 3.438 2.343 2.344 1.563v.781l-3.125 2.969-1.563 2.187-1.406 2.657-2.188 1.25-1.172.703-.234 1.172-.589 2.52 1.056 2.168 3.125 2.813 4.687 2.187 3.907.625.156 1.406-.781.938.312 2.656h.781l2.032-2.344.781-4.687 2.656-3.906 2.969-6.25 1.094-5.313-.625-1.094-.157-9.062-1.562-3.281-1.094.781-2.656.313-.469-.47 1.094-.937 2.031-1.875.061-1.057-.371-3.319.468-2.656-.156-2.031-2.5-1.094-4.375-.938-3.75-1.093-3.594-1.72z"/><path id="Maryland" onclick="Check(evt)" onmouseover="On(evt)" onmouseout="Off(evt)" d="M826.617 398.424l-5.936 1.249-5.611.156-1.782-6.861-2.031-9.375-2.188-5.47-1.245-4.25-7.255 1.568-14.378 2.729-36.198 7.298 1.093 4.844.938 5.469.312-.313 2.032-2.344 2.187-2.53L758.9 390l1.406-1.406 1.719-2.5 1.25.625 2.812-.312 2.5-2.032 1.94-1.404 1.784-.47 1.589 1.093L776.71 385l1.875 1.719 1.172 1.484 3.985 1.641v2.813l5.312 1.25 1.106.523 1.365-1.96 2.785 1.904-1.235 2.399-.74 3.852-1.718 2.5v2.032l.625 1.718 4.894 1.31 4.167-.059 2.969.938 2.031.312.937-2.031-1.406-2.031v-1.72l-2.344-2.03-2.03-5.313 1.25-5.156-.157-2.031-1.25-1.25s1.406-1.563 1.406-2.188c0-.625.469-2.031.469-2.031l1.875-1.25 1.875-1.563.469.938-1.407 1.562-1.25 3.594.313 1.094 1.719.312.468 5.313-2.03.937.312 3.438.468-.156 1.094-1.875 1.563 1.718-1.563 1.25-.312 3.281 2.5 3.282 3.75.469 1.562-.782 3.128 4.043 1.313.519 6.431-2.704 1.94-3.889.22-4.701zm-16.076 8.684l1.094 2.422.156 1.718 1.094 1.797s.86-.859.86-1.172c0-.312-.704-2.968-.704-2.968l-.703-2.266-1.797.469z"/><path id="Delaware" onclick="Check(evt)" onmouseover="On(evt)" onmouseout="Off(evt)" d="M812.505 374.375l.57-2.032.02-1.165-1.227-.085-2.03 1.562-1.407 1.406 1.406 4.063 2.188 5.469 2.03 9.375 1.563 6.093 4.844-.156 5.937-1.171-2.189-7.109-.937.469-3.438-2.344-1.719-4.531-1.875-3.438-2.187-.937-2.031-3.438.482-2.031z"/><path id="Illinois" onclick="Check(evt)" onmouseover="On(evt)" onmouseout="Off(evt)" d="M614.803 443.17v-3.483l.25-4.704 2.297-3.032 1.718-3.64 2.5-3.734-.359-5.076-1.938-3.424-.093-3.235.672-5.093-.798-6.938-1.03-15.25-1.25-14.515-.892-11.25-.264-.89-.78-2.5-1.25-3.594-1.563-1.718-1.407-2.5-.225-5.305-9.572 1.268-26.295 1.657-8.397-.414.221 2.292 2.21.663.884 1.105.442 1.768 3.756 3.314.663 2.21-.663 3.315-1.768 3.535-.663 2.43-2.21 1.769-1.767.663-5.082 1.325-.663 1.768-.663 1.989.663 1.326 1.767 1.547-.22 3.977-1.768 1.547-.663 1.547v2.651l-1.768.442-1.547 1.105-.22 1.326.22 1.989-1.657 1.27-.995 2.707.442 3.536 2.21 7.07 7.071 7.293 5.304 3.535-.221 4.199.883 1.326 6.188.442 2.651 1.325-.663 3.536-2.21 5.745-.662 3.094 2.21 3.756 6.187 5.083 4.42.663 1.988 4.86 1.989 3.094-.884 2.873 1.546 3.978 1.768 1.988 1.88-.765.663-2.091 1.968-1.39 3.128-1.064 2.986 1.14 2.78 1.031.764-.202-.063-1.2-1.03-2.674.421-2.297 2.204-1.516 2.281-.954 1.124-.405-.562-1.28-.735-2.095 1.204-1.22.937-2.623z"/><path id="Indiana" onclick="Check(evt)" onmouseover="On(evt)" onmouseout="Off(evt)" d="M615.398 442.45l.063-2.763.469-4.375 2.187-2.813 1.72-3.75 2.5-4.062-.47-5.625-1.718-2.656-.313-3.125.781-5.313-.468-6.719-1.25-15.468-1.25-14.844-.938-11.328 2.968.86 1.406.937 1.094-.312 2.031-1.875 2.735-1.563 4.922-.157 21.25-2.187 5.39-.516 1.452 15.423 4.11 35.608.578 5.579-.36 2.187 1.188 1.735.093 1.327-2.437 1.546-3.421 1.5-3.095.531-.578 4.704-4.422 3.202-2.703 3.876.313 2.297-.562 1.483h-3.215l-1.533-1.562-2.41 1.22-2.593 1.452.156 2.953-1.153.249-.453-.984-2.094-1.453-3.141 1.297-1.5 2.905-1.39-.78-1.406-1.547-4.315.469-5.405.937-2.813 1.5z"/><path id="Ohio" onclick="Check(evt)" onmouseover="On(evt)" onmouseout="Off(evt)" d="M724.631 340.145l-5.89 3.918-3.75 2.187-3.28 3.594-3.907 3.75-3.125.781-2.813.469-5.312 2.5-2.031.156-3.282-2.969-5 .625-2.5-1.406-2.3-1.306-4.73.68-9.844 1.563-7.5 1.172 1.25 14.14 1.72 13.282 2.5 22.656.546 4.67 3.984-.125 2.344-.782 3.251 1.453 2.002 4.219 4.967-.017 1.828 2.048 1.702-.063 2.454-1.296 2.42.359 1.908 1.406 1.67-2.061 2.266-1.25 2.002-.659.625 2.657 1.718.937 3.36 2.266 2.11-.078 1.106-1.11-.063-1.34 1.563-1.407.156-4.844.938-3.75 1.469-1.392 1.47.874.797 1.17 1.17-.17-.408-2.33-.546-.622v-2.343l.938-1.25 2.187-3.282 1.25-1.406 2.032.469 2.187-1.563 2.969-3.28 2.187-3.75.203-5.25.469-4.844v-4.531l-1.094-2.97.938-1.405.89-.923-1.358-9.513-2.813-18.714z"/><path id="Pennsylvania" onclick="Check(evt)" onmouseover="On(evt)" onmouseout="Off(evt)" d="M812.364 370.544l1.094-.625 2.187-.592 1.407-2.656 1.562-2.187 3.125-2.97v-.78l-2.344-1.563-3.437-2.344-.938-2.5-2.656-.312-.156-1.094-.781-2.656 2.187-1.094.156-2.344-1.25-1.25.157-1.562 1.875-2.969v-2.969l2.265-2.343.208-1.048-2.5-.156-2.188-1.875-2.344-5.156-2.904-.9-2.252-2.069-17.969 3.906-41.562 8.438-8.594 1.406-.48-6.847-5.303 5.442-1.25.469-4.062 2.908 2.814 18.497 2.398 9.404 3.453 18.616 3.16-.616 11.543-1.452 36.658-7.409 14.378-2.729 8.022-1.568.259-.23 2.03-1.563 2.032-.658z"/><path id="Missouri" onclick="Check(evt)" onmouseover="On(evt)" onmouseout="Off(evt)" d="M554.862 392.84l-2.435-2.984-1.105-2.21-7.513.663-9.502.442-24.528.884-13.037.22-7.623.111-2.21.11 1.215 2.432-.22 2.21 2.43 3.756 2.983 3.977 2.983 2.652 2.21.22 1.326.885v2.872l-1.768 1.547-.442 2.21 1.989 3.314 2.43 2.873 2.431 1.768 1.326 11.27-.663 34.14.221 4.53.442 5.203 22.649-.113 22.429-.663 20.108-.774 11.265-.223 2.097 3.311-.661 3.197-2.984 2.323-.554 1.776 5.199.442 3.764-.663 1.66-5.31.63-5.66 2.241-1.958 1.655-1.437 1.989-.995.111-2.765.555-1.658-.997-1.69-2.653.14-2.097-2.537-1.327-4.087.774-2.434-1.88-3.313-1.769-4.423-4.638-.772-6.736-5.412-1.661-3.976.772-3.093 1.99-5.855.444-2.768-1.884-.997-6.626-.77-.993-1.656-.108-4.088-5.304-3.316-6.742-7.512-2.21-7.071-.222-4.084.774-2.211z"/><path id="Kansas" onclick="Check(evt)" onmouseover="On(evt)" onmouseout="Off(evt)" d="M504.208 465.912l-12.196.198-44.546-.442-43.066-1.989-23.806-1.215 4.005-62.554 21.103.773 39.112 1.326 42.647.442h4.925l3.139 3.117 2.675.221.86 1.04v1.941l-1.768 1.547-.442 2.52 2.144 3.47 2.431 3.027 2.43 1.923 1.016 10.804-.663 33.851z"/><path id="Kentucky" onclick="Check(evt)" onmouseover="On(evt)" onmouseout="Off(evt)" d="M715.301 439.514l-2.247 2.593-4.062 3.438-4.156 5.704-1.718 1.72v2.03l-3.75 2.032-5.47 3.28-3.401.373-50.132 4.735-15.232 1.718-4.467.496-3.738-.027-.22 4.08-7.905.139-6.72.625-10.08.199 1.848-.215 2.107-1.703 1.989-1.105.22-3.093.885-1.768-1.553-2.454.775-1.843 2.187-1.719 2.031-.625 2.657 1.25 3.437 1.25 1.094-.312.156-2.188-1.25-2.343.313-2.188 1.875-1.406 2.5-.625 1.562-.625-.781-1.719-.625-1.875 1.094-.781 1.015-3.203 2.89-1.64 5.626-.938 3.437-.47 1.407 1.876 1.718.781 1.72-3.125 2.812-1.406 1.875 1.562.78 1.094 2.032-.469-.156-3.28 2.812-1.563 1.094-.782 1.094 1.563h4.531l.781-2.031-.312-2.188 2.812-3.437 4.532-3.75.468-4.375 2.657-.313 3.75-1.719 2.656-1.875-.313-1.875-1.406-1.406.547-2.11 3.984-.234 2.344-.78 2.813 1.562 1.562 4.218 5.625.313 1.719 1.719 2.031.156 2.344-1.406 2.969.468 1.25 1.407 2.656-2.5 1.719-1.25h1.562l.625 2.656 1.72.937 2.34 2.141.156 5.313.781 1.562 2.5 1.407.625 2.187 2.813 3.594 2.5 2.656 3.28 1.905z"/><path id="West Virginia" onclick="Check(evt)" onmouseover="On(evt)" onmouseout="Off(evt)" d="M748.915 385.533l1.075 4.779 1.047 6.675 3.44-2.656 2.188-2.969 2.453-.595 1.406-1.406 1.72-2.5 1.14.625 2.812-.313 2.5-2.031 1.94-1.405 1.783-.468 1.26.982 2.155 1.077 1.875 1.72 1.328 1.25-.138 4.514-5.469-2.969-4.375-1.719-.156 5.157-.469 2.03-1.562 2.657-.625 1.563-2.97 2.343-.468 2.188-3.281.312-.313 2.97-1.093 5.312h-2.5l-1.25-.782-1.563-2.656-1.719.156-.312 4.22-2.031 6.405-4.844 10.47.781 1.25-.156 2.655-2.031 1.875-1.407-.312-3.125 2.344-2.5-.938-1.718 4.531s-3.594.782-4.22.938c-.624.156-2.343-1.25-2.343-1.25l-2.344 2.187-2.5.625-2.812-.78-1.25-1.25-2.119-2.923-3.037-1.922-2.5-2.656-2.813-3.594-.625-2.187-2.5-1.406-.781-1.563-.235-5.078 2.11-.078 1.875-.781.156-2.657 1.563-1.406.156-4.844.937-3.75 1.25-.625 1.25 1.094.47 1.719 1.718-.938.469-1.562-1.094-1.719v-2.344l.937-1.25 2.188-3.28 1.25-1.407 2.031.469 2.188-1.563 2.968-3.281 2.188-3.75.312-5.469.47-4.844v-4.531l-1.095-2.969.938-1.406 1.24-1.25 3.375 19.164 4.476-.726 10.925-1.498z"/><path id="Virginia" onclick="Check(evt)" onmouseover="On(evt)" onmouseout="Off(evt)" d="M818.84 411.898l-.14-1.882 6.238-2.464-.745 3.11-2.822 3.653-.404 4.432.446 3.277-1.766 4.811-2.092 1.852-1.421-4.485.43-5.267 1.534-4.043.742-2.994zm2.203 27.354l-56.227 12.155-36.175 5.102-6.455-.362-2.498 1.862-7.094.213-8.101.945-8.628.92 8.197-4.783-.013-2.005 1.47-2.075 10.2-11.116 3.815 4.327 3.656.932 2.458-1.102 2.163-1.267 2.452 1.298 3.783-1.38 1.814-4.404 2.514.522 2.76-2.06 1.738.477 2.733-3.553.336-2.013-.931-1.233.97-1.804 5.097-11.867.596-5.543 1.188-.506 2.105 2.361 3.805-.29 1.864-7.321 2.7-.542 1.015-2.65 2.494-2.268 1.225-2.264 1.454-3.24.082-4.898 9.493 3.695c.658.329.634-4.624.634-4.624l3.915 1.33-.447 2.542 7.883 2.841 1.25 1.734-.839 3.56-1.22 1.28-.49 1.688.478 2.323 1.893 1.235 3.787 1.397 2.85.936 4.694.91 2.08 2.019 3.084.389.839 1.16-.425 4.533 1.329 1.065-.463 1.866 1.188.764-.214 1.338-2.604-.092.086 1.562 2.205 1.49.117 1.365 1.714 1.726.475 2.44-2.467 1.335 1.52 1.444 5.606-1.63 3.487 5.811z"/><path id="California" onclick="Check(evt)" onmouseover="On(evt)" onmouseout="Off(evt)" d="M149.84 525.473l3.687-.472 1.436-1.944.708-1.876-3.07-.087-1.063-1.704.753-1.658-.045-5.945 2.144-1.283 2.607-2.496.397-4.751 1.592-3.38 1.878-2.034 3.16-1.657 1.236-.706.73-1.434-.838-.863-.929-1.46-.905-5.169-2.807-5.06.094-2.694-2.127-3.14-14.497-22.451-18.783-27.753-21.676-31.928-12.277-18.891 1.736-6.967 6.585-25.08 7.844-30.384-11.951-3.225-13.038-3.315-12.153-3.977-7.292-1.99-11.049-2.872-6.815-2.33-1.527 4.565-.156 7.188-5 11.406-2.969 2.5-.312 1.094-1.719.781-1.406 4.063-.782 3.125 2.657 4.062 1.562 4.063 1.094 3.437-.313 6.25L34.523 350l-.625 5.625-.938 3.594 1.719 3.75 2.656 4.375 2.188 4.687 1.25 3.906-.313 3.125-.312.47v2.03l5.468 6.094-.468 2.344-.625 2.188-.625 1.875.156 7.968 2.031 3.594 1.875 2.5 2.656.469.938 2.656-1.094 3.438-2.031 1.562h-1.094l-.781 3.75.469 2.813 3.125 4.218 1.562 5.156 1.406 4.532 1.25 2.969 3.282 5.625 1.406 2.5.469 2.812 1.562.938v2.343l-.781 1.875-1.719 6.875-.469 1.875 2.344 2.656 4.063.47 4.375 1.718 3.75 2.031h2.812l2.813 2.969 2.5 4.688 1.093 2.187 3.75 2.031 4.688.781 1.406 2.032.625 3.125-1.406.625.312.937 3.125.781 2.657.157 2.812 4.531 3.75 4.063.781 2.187 2.5 4.063.313 3.125v9.062l.469 1.719 9.687 1.406 19.063 2.656 13.442.942zm-85.004-48.052l1.25 1.484-.157 1.25-3.125-.078-.547-1.172-.625-1.406 3.204-.078zm1.875 0l1.171-.625 3.438 2.03L74.289 480l-.86.625-4.375-.235-1.562-1.562-.781-1.406zm20 19.14l1.718 2.266.782.937 1.484.547.547-1.406-.938-1.719-2.578-1.953-1.015.156v1.172zm-1.407 8.36l1.72 3.047 1.171 1.875-1.406.234-1.25-1.172s-.703-1.406-.703-1.797v-2.11l.468-.077z"/><path id="Nevada" onclick="Check(evt)" onmouseover="On(evt)" onmouseout="Off(evt)" d="M153.625 323.292l20.278 4.36 9.392 1.879 8.949 1.768 6.393 1.578-.54 5.67-3.425 16.748-3.956 19.312-1.878 9.393-2.1 12.838-3.048 15.865-3.404 15.16-1.903 9.84-2.383 16.21-.442 1.061-1.036 2.387-1.81-.11-1.06-2.653-2.653-.486-1.349-.95-1.97.31-.883.708-1.258 1.304-.42 6.74-.532 1.657-.397 11.688-1.278 1.657-1.814-2.186-14.031-21.986-18.783-28.064-21.987-32.703-11.967-17.96 1.582-6.347 6.74-25.08 7.623-30.299 32.483 7.87 13.258 2.873"/><path id="Utah" onclick="Check(evt)" onmouseover="On(evt)" onmouseout="Off(evt)" d="M262.18 450.619l-23.819-3.357-25.675-4.73-32.695-5.818 1.536-8.85 3.093-14.696 3.204-16.02 2.1-13.148 1.878-8.618 3.646-19.776 3.425-16.905 1.077-5.386 12.292 2.182 11.6 1.989 9.944 1.768 8.066 1.326 3.555.463-1.436 10.274-2.234 12.732 7.547.897 15.857 1.745 7.936.827-2.059 21.233-3.094 21.81-3.627 26.895-1.61 10.736-.508 2.427z"/><path id="Arizona" onclick="Check(evt)" onmouseover="On(evt)" onmouseout="Off(evt)" d="M150.812 526.195l-2.54 2.086-.312 1.407.469.937 18.281 10.313 11.719 7.343 14.219 8.282 16.25 9.687 11.875 2.344 24.287 2.614 2.446-12.088 3.627-26.331 6.732-51.112 4.114-29.93-23.773-3.555-26.296-4.42-32.31-6.105-2.824 17.486-.442.442-1.657 2.541-2.431-.11-1.215-2.652-2.652-.332-.884-1.104h-.884l-.884.552-1.878.994-.11 6.74-.221 1.657-.553 12.154-1.436 2.099-.553 3.204 2.652 4.75 1.215 5.636.774.994.994.552-.11 2.21-1.547 1.326-3.315 1.657-1.878 1.879-1.436 3.535-.553 4.751-2.762 2.652-1.988.663-.111 5.634-.442 1.658.442.773 3.536.552-.553 2.652-1.436 2.1-3.646.883z"/><path id="Colorado" onclick="Check(evt)" onmouseover="On(evt)" onmouseout="Off(evt)" d="M383.624 399.865l1.392-20.569-31.021-2.962-23.644-2.609-36.018-3.977-19.998-2.431-2.542 21.434-3.093 21.655-3.627 27.05-1.455 10.736-.243 2.671 32.791 3.667 36.478 4.124 30.89 3.06 16.053.818z"/><path id="New Mexico" onclick="Check(evt)" onmouseover="On(evt)" onmouseout="Off(evt)" d="M290.937 568.282l-.629-5.918 8.355.508 28.528 2.962 27.443 1.392 1.9-21.585 3.601-54.006 1.082-18.74 1.946.337-.014-10.704-31.126-2.323-35.702-4.279-33.311-3.977-4.06 29.728-6.731 51.422-3.627 26.02-1.981 12.865 14.943 1.922 1.25-9.687 16.094 2.5 12.039 1.563z"/><path id="Texas" onclick="Check(evt)" onmouseover="On(evt)" onmouseout="Off(evt)" d="M362.778 473.88l21.932 1.05 30.052 1.105-2.257 22.67-.286 17.546.065 2.012 4.199 3.691 1.678.795 1.749.244.663-1.213.86.837 1.679.465 1.551-.705 1.1.395-.286 3.291 4.132.997 2.586.794 3.823.508 2.12 1.768 3.14-1.523 2.694.352 1.966 2.694 1.039.31-.155 1.9 2.985 1.128 2.675-1.744 1.458.353 2.275.155.419 1.81 4.485 1.923 2.567-.198 1.923-3.977h.329l1.105 1.833 4.287.974 3.226 1.17 3.183.73 2.078-.73.818-2.43h3.578l1.833.728 2.962-1.523h.64l.352 1.081h4.133l2.322-1.213 1.613.287 1.368 1.81 2.784 1.613 3.403 1.039 2.652 1.37 2.365 1.569 3.183-.861 1.876.95.494 9.8.324 9.378.663 9.214.508 3.912 2.585 4.443 1.04 3.93 3.732 6.08.532 2.783.507.973-.662 7.245-2.563 4.241.927 2.764-.353 2.431-.818 7.071-1.326 2.628.584 4.24-5.475 1.532-9.532 4.375-.937 1.875-2.5 1.875-2.031 1.406-1.25.782-5.469 5.156-2.656 2.031-5.157 3.125-5.468 2.344-6.094 3.281-1.719 1.406-5.625 3.438-3.281.625-3.75 5.312-3.906.313-.938 1.875 2.188 1.875-1.407 5.312-1.25 4.375-1.093 3.75-.782 4.375.782 2.344 1.718 6.719.938 5.937 1.719 2.657-.938 1.406-2.969 1.875-5.468-3.75-5.313-1.094-1.25.469-3.125-.625-4.062-2.969-5-1.094-7.344-3.281-2.031-3.75-1.25-6.25-3.125-1.875-.625-2.188.625-.625.312-3.28-1.25-.626-.625-.937 1.25-4.219-1.562-2.188-3.125-1.25-3.282-4.218-3.437-6.407-4.063-2.5.157-1.875-5.157-11.875-.78-4.062-1.72-1.875-.156-1.406-5.781-5.157-2.5-2.968v-1.094l-2.5-2.031-6.563-1.094-7.187-.625-2.969-2.188-4.375 1.72-3.437 1.405-2.188 3.125-.937 3.594-4.219 5.938-2.344 2.343-2.5-.937-1.719-1.094-1.875-.625-3.75-2.187v-.625l-1.718-1.875-5-2.032-7.188-7.5-2.187-4.53v-7.813l-3.125-6.25-.469-2.657-1.563-.937-1.093-2.031-4.844-2.032-1.25-1.562-6.875-7.656-1.25-3.125-4.531-2.188-1.407-4.219-2.5-2.812-1.875-.469-.627-4.52 7.734.662 28.063 2.652 28.064 1.547 2.21-22.981 3.756-53.696 1.547-18.12 1.325.028m95.665 226.146l-.547-6.875-2.657-6.953-.546-6.797 1.484-7.968 3.203-6.641 3.36-5.234 3.046-3.438.625.234-4.61 6.407-4.218 6.328-1.953 6.406-.313 5 .86 5.938 2.5 6.953.469 5 .156 1.406-.86.234z"/><path id="Oklahoma" onclick="Check(evt)" onmouseover="On(evt)" onmouseout="Off(evt)" d="M380.456 463.44l-10.33-.443-6.215-.47.248.194-.68 10.073 21.23 1.36 30.983 1.26-2.256 23.602-.442 17.235.221 1.547 4.198 3.536 1.99 1.105.662-.221.663-1.99 1.326 1.769h1.989v-1.326l2.651 1.326-.442 3.756 3.978.221 2.43 1.105 3.977.663 2.432 1.768 2.21-1.99 3.314.664 2.43 3.314h.884v2.21l2.21.663 2.21-2.21 1.768.663h2.43l.884 2.43 4.64 1.769 1.326-.663 1.768-3.978h1.105l1.105 1.989 3.977.663 3.536 1.326 2.873.884 1.767-.884.663-2.431h4.199l1.988.884 2.652-1.989h1.105l.663 1.547h3.977l1.547-1.989 1.768.442 1.989 2.43 3.093 1.769 3.094.884 1.876 1.081-.376-35.971-1.326-10.607-.155-8.576-1.392-6.318-.752-6.94-.066-3.688-11.73.308-44.857-.442-43.532-1.989-23.478-1.326z"/><path id="Arkansas" onclick="Check(evt)" onmouseover="On(evt)" onmouseout="Off(evt)" d="M588.849 485.072l-3.718.906-5.967-.442.663-2.872 3.094-2.652.442-2.21-1.768-2.872-10.607.442-20.108.884-22.54.662-22.538.442 1.547 6.63v7.955l1.326 10.606.22 36.57 2.21 1.88 2.873-1.327 2.651 1.105.416 9.978 22.12-.137 18.233-.775 9.783-.19 1.107-2.02-.277-3.432-1.765-2.872 1.546-1.436-1.546-2.427.662-2.426 1.322-5.418 2.434-1.993-.663-2.209 3.536-5.192 2.651-1.322-.11-1.444-.333-1.764 2.761-5.412 2.323-1.214.371-3.313 1.712-1.2.827-4.093-1.296-3.876 3.906-2.297.532-1.952 1.194-4.125.774-3.146z"/><path id="Louisiana" onclick="Check(evt)" onmouseover="On(evt)" onmouseout="Off(evt)" d="M599.723 608.828l-.995-2.529-1.105-2.988-3.205-3.423.885-6.524-.114-1.103-1.22.33-7.955.882-24.19.444-.662-2.315.883-8.172 3.205-5.747 4.863-8.4-.555-2.318 1.214-.658.444-1.887-2.21-1.987-.108-1.878-1.77-4.2-.44-5.742-9.4.11-18.561.884-21.462.027.027 9.254.663 9.06.663 3.756 2.43 3.977.885 4.862 4.198 5.303.221 3.094.663.662-.663 8.176-2.872 4.862 1.546 1.989-.663 2.43-.662 7.071-1.326 3.094.118 3.495 4.53-1.469 7.812-.313 10 3.438 6.25 1.094 3.594-1.407 3.125 1.094 3.125.938.781-2.032-3.125-1.093-2.5.468-2.656-1.562s.156-1.25.781-1.406c.625-.157 2.969-.938 2.969-.938l1.719 1.407 1.718-.938 3.125.625 1.407 2.344.312 2.187 4.375.313 1.719 1.718-.781 1.563-1.25.781 1.562 1.563 8.125 3.437 3.438-1.25.937-2.343 2.5-.625 1.719-1.407 1.25.938.781 2.812-2.187.782.625.625 3.281-1.25 2.187-3.282.782-.468-2.032-.313.782-1.563-.157-1.406 2.032-.468 1.093-1.25.625.78s-.156 2.97.625 2.97c.782 0 4.063.625 4.063.625l3.906 1.875.938 1.406h2.812l1.094.937 2.187-2.968v-1.407h-1.25l-3.28-2.656-5.626-.781-3.125-2.188 1.094-2.656 2.187.313.157-.625-1.719-.938v-.469h3.125l1.719-2.968-1.25-1.875-.313-2.657-1.406.157-1.875 2.03-.625 2.5-2.969-.624-.937-1.719 1.718-1.875 1.954-1.719-.347-.703z"/><path id="Tennessee" onclick="Check(evt)" onmouseover="On(evt)" onmouseout="Off(evt)" d="M691.399 461.562l-50.157 4.844-15.232 1.718-4.466.496-3.74-.027v3.75l-8.124.469-6.719.625-10.725.051-.255 5.64-2.067 6.066-.962 2.915-1.303 4.234-.313 2.5-3.906 2.188 1.406 3.437-.937 4.219-.936.763 7.013-.188 23.281-1.875 5.156-.156 7.813-.469 26.875-2.5 9.83-.78 8.139-.938 8.125-1.094 4.687-.781-.126-4.359 1.719-1.406 2.656-.625.625-3.594 4.063-2.656 3.75-1.406 4.062-3.438 4.219-2.031.844-3.408 4.189-3.75.625-.156s0 1.094.781 1.094 1.875.312 1.875.312l2.188-3.437 2.03-.625 2.188.312 1.563-3.437 2.045-2.171.578-.935.17-3.8-1.433-.279-2.344 1.875-7.656.157-11.594 1.837-9.5.819z"/><path id="Mississippi" onclick="Check(evt)" onmouseover="On(evt)" onmouseout="Off(evt)" d="M621.331 603.005l-.246 1.214h-5l-1.406-.782-2.031-.312-6.563 1.875-1.719-.781-2.5 4.062-1.065.752-1.086-2.404-1.105-3.757-3.315-3.094 1.105-7.292-.663-.884-1.768.221-7.955.663-23.423.663-.441-1.547.662-7.734 3.315-5.966 5.082-8.839-.884-1.988h1.105l.663-3.094-2.21-1.768.221-1.767-1.988-4.42-.276-5.165 1.325-2.569-.386-4.198-1.326-2.873 1.326-1.326-1.326-1.988.442-1.768.884-5.966 2.872-2.652-.663-1.989 3.536-5.082 2.652-.884v-2.43l-.663-1.327 2.651-5.082 2.652-1.105.104-3.298 8.385-.075 23.281-1.875 4.427-.22.008 6.158.157 16.094-.782 30L617.24 570l2.656 18.125 1.435 14.88z"/><path id="Alabama" onclick="Check(evt)" onmouseover="On(evt)" onmouseout="Off(evt)" d="M622.335 602.813l-1.561-14.688L618.117 570l.157-13.594.78-30-.155-16.094.16-6.204 7.496-.359 26.875-2.5 8.624-.64-.143 2.11.156 2.031.625 3.281 3.282 7.657 2.343 9.53 1.407 5.938 1.562 4.688 1.406 6.719 2.032 6.093 2.5 3.282.468 3.28 1.875.782.157 2.031-1.72 4.688-.468 3.125-.156 1.875 1.562 4.219.313 5.156-.781 2.344.625.78 1.406.782 1 2.45h-6.093l-6.563.626-24.687 2.812-10.063 1.36-.094 3.627 1.72 1.718 2.5 1.875.56 7.67-5.356 2.487-2.656-.313 2.656-1.875v-.937l-2.969-5.781-2.187-.625-1.407 4.218-1.25 2.657-.625-.157h-2.656z"/><path id="Georgia" onclick="Check(evt)" onmouseover="On(evt)" onmouseout="Off(evt)" d="M684.211 497.656l-4.687.781-8.125 1.094-8.282.86v2.108l.157 2.032.625 3.281 3.281 7.656 2.344 9.532 1.406 5.937 1.563 4.688 1.406 6.718 2.031 6.094 2.5 3.281.469 3.282 1.875.78.156 2.032-1.719 4.688-.468 3.125-.157 1.875 1.563 4.218.312 5.157-.781 2.343.625.782 1.406.78.625 3.282 2.5 3.75 1.407 1.406 7.656.157 10.457-.625 20.793-1.25 5.263-.652 4.424.027.157 2.812 2.5.781.312-4.218-1.562-4.375 1.093-1.563 5.625.781 4.811.307-.75-6.087 2.188-9.688 1.406-4.063-.468-2.5 3.223-6.035-.494-1.306-1.85.68-2.5-1.25-.624-2.03-1.25-3.438-2.188-2.031-2.5-.625-1.562-4.688-2.827-6.123-4.063-1.875-2.031-1.875-1.25-2.5-2.031-1.875-2.188-1.25-2.187-2.812-2.969-2.188-4.375-1.719-.469-1.406-2.343-2.812-.47-1.407-3.28-4.743-3.282.156-3.991-2.942-1.25-1.25-.313-1.719.781-1.875 2.273-1.193-1.096-1.182.076-.28-5.625.937-6.72.781-6.562.469z"/><path id="North Carolina" onclick="Check(evt)" onmouseover="On(evt)" onmouseout="Off(evt)" d="M821.932 440.146l1.653 4.541 3.438 6.25 2.343 2.344.625 2.188-2.343.156.781.625-.313 4.063-2.5 1.25-.625 2.03-1.25 2.813-3.593 1.563-2.344-.313-1.406-.156-1.563-1.25.313 1.25v.938h1.875l.781 1.25-1.875 6.093h4.062l.625 1.563 2.188-2.188 1.25-.469-1.875 3.438-2.969 4.688h-1.25l-1.094-.47-2.656.626-5 2.344-6.25 5.156L799.68 495l-1.875 6.25-.469 2.344-4.531.469-5.27 1.291-9.614-7.928-12.188-7.343-2.812-.782-12.188 1.407-4.133.725-1.563-3.125-2.87-2.046-15.938.469-7.031.78-8.75 4.376-5.938 2.5-1.562.312-5.625.938-6.72.781-6.562.469.484-3.919 1.719-1.406 2.656-.625.625-3.594 4.062-2.656 3.75-1.406 4.063-3.438 4.219-2.031.625-2.969 3.75-3.75.625-.156s0 1.094.78 1.094c.782 0 1.876.312 1.876.312l2.187-3.437 2.032-.625 2.187.312 1.563-3.437 2.812-2.5.469-2.032v-3.828l4.375.703 6.897-1.25 15.29-1.875 16.563-2.5 19.255-3.866 19.073-4.026 10.984-2.703 4.971-1.133zm3.766 31.884l2.5-2.422 3.046-2.5 1.485-.625.156-1.953-.625-5.938-1.406-2.265-.625-1.797.703-.235 2.656 5.313.39 4.297-.155 3.281-3.282 1.485-2.734 2.343-1.094 1.172-1.015-.156z"/><path id="South Carolina" onclick="Check(evt)" onmouseover="On(evt)" onmouseout="Off(evt)" d="M753.429 550.781l-1.718.937-2.5-1.25-.625-2.031-1.25-3.437-2.187-2.032-2.5-.625-1.563-4.687-2.656-5.781-4.062-1.875-2.032-1.875-1.25-2.5-2.03-1.875-2.188-1.25-2.188-2.813-2.969-2.188-4.375-1.718-.468-1.407-2.344-2.812-.469-1.406-3.281-5-3.281.156-3.907-2.344-1.25-1.25-.312-1.719.781-1.875 2.188-.937-.313-2.031 5.938-2.5 8.75-4.375 7.03-.782 15.938-.468 2.188 1.875 1.562 3.125 4.22-.469 12.187-1.406 2.812.781 12.188 7.344 9.77 7.85-5.24 5.275-2.5 5.938-.469 6.093-1.563.782-1.093 2.656-2.344.625-2.031 3.438-2.657 2.656-2.187 3.281-1.563.781-3.437 3.282-2.813.156.938 3.125-4.844 5.312-2.031 1.25z"/><path id="Florida" onclick="Check(evt)" onmouseover="On(evt)" onmouseout="Off(evt)" d="M747.79 582.26l2.19 7.074 3.605 9.416 5.156 9.063 3.594 6.093 4.688 5.313 3.906 3.593 1.562 2.813-1.093 1.25-.782 1.25 2.813 7.188 2.812 2.812 2.5 5.156 3.438 5.625 4.375 7.969 1.25 7.344.469 11.562.625 1.719-.313 3.281-2.344 1.25.313 1.875-.625 1.875.312 2.344.47 1.875-2.657 3.125-2.969 1.406-3.75.157-1.406 1.562-2.344.938-1.25-.47-1.094-.937-.312-2.812-.781-3.282-3.282-5-3.437-2.187-3.75-.313-.781 1.25-2.969-4.218-.625-3.438-2.5-3.906-1.719-1.094-1.562 2.032-1.719-.313-2.031-4.844-2.813-3.75-2.812-5.156-2.5-2.969-3.438-3.593 2.031-2.344 3.125-5.313-.156-1.562-4.375-.938-1.562.625.312.625 2.5.938-1.406 4.375-.781.468-1.719-3.906-1.25-4.687-.313-2.657 1.407-4.53v-9.22l-2.969-3.593-1.25-2.969-5-1.25-1.875-.625-1.563-2.5-3.28-1.563-1.095-3.28-2.656-.938-2.344-3.594-4.062-1.406-2.813-1.407h-2.5l-3.906.782-.156 1.875.781.937-.469 1.094-2.968-.156-3.594 3.437-3.438 1.875h-3.75l-3.125 1.25-.312-2.656-1.563-1.875-2.812-1.094-1.563-1.406-7.812-3.75-7.344-1.719-4.219.625-5.78.469-5.782 2.031-3.363.593-.23-7.78-2.5-1.876-1.719-1.718.313-2.97 9.844-1.25 24.687-2.812 6.563-.625 5.254.271 2.5 3.75 1.406 1.406 7.827.498 10.458-.625 20.792-1.25 5.264-.651 4.424.026.156 2.813 3.696.781.313-4.646-1.563-4.375.923-.708 4.941.44 5 .312zm12.126 127.974l2.344-.625 1.25-.235 1.406-2.265 2.266-1.563 1.25.47 1.64.312.391 1.015-3.36 1.172-4.062 1.406-2.266 1.172-.859-.86zm13.047-4.844l1.172 1.016 2.656-2.032 5.156-4.062 3.594-3.75 2.422-6.406.938-1.64.156-3.282-.703.469-.938 2.734-1.406 4.453-3.125 5.078-4.219 4.063-3.281 1.875-2.422 1.484z"/></g><path id="?" d="M801.757 253.844l-1.077-1.637-1.014-.842 1.1-1.617 2.232 1.511-1.241 2.585z" fill="#ccc"/><g transform="translate(-18.068 -130.072)"><path id="Border1" d="M229.212 623.123l.469 55.313 35 45.313M18.43 554.998l143.439.312 67.657 68.282 85.157.156 53.75 53.438-.313 46.25" fill="none" fill-opacity=".75" stroke="#a9a9a9" stroke-width="1.875"/></g><g font-family="sans-serif" font-weight="bold" fill="#66f"><text id="Feedback" font-size="30" x="470" y="560"></text><text id="Score" font-size="20" x="470" y="590"></text><text id="TopScore" font-size="20" x="600" y="590"></text></g><g id="Splash" font-family="sans-serif" font-size="30" fill="#66f"><rect id="SplashOutline" x="50" y="50" rx="50" ry="50" width="500" height="400" stroke="#000" stroke-width="3" fill="#fff" fill-opacity=".6"/><text id="Inst1" x="100" y="100">Click on the state specified</text><text id="Inst2" x="100" y="150">at the bottom of the screen.</text><text id="Inst3" x="100" y="250">If you select the wrong state</text><text id="Inst4" x="100" y="300">the correct answer will be</text><text id="Inst5" x="100" y="350">highlighted in green.</text><g id="Begin" onmouseover="BgnOn()" onmouseout="BgnOff()" onclick="BgnClick()"><rect id="BgnOutline" x="400" y="375" rx="10" ry="10" width="100" height="50" stroke="#000" fill="#fff"/><text id="BgnText" x="410" y="410">Begin</text></g></g></svg>